<?xml version="1.0" encoding="utf-8"?>
<!-- Generator: Adobe Illustrator 19.1.0, SVG Export Plug-In . SVG Version: 6.00 Build 0)  -->
<svg version="1.1" id="Layer_1" xmlns="http://www.w3.org/2000/svg" xmlns:xlink="http://www.w3.org/1999/xlink" x="0px" y="0px"
	 viewBox="0 100 500 500" style="enable-background:new 0 0 500 500;" xml:space="preserve">
<style type="text/css">
	.st0{fill:#3E62C3;}
	.st1{fill:#3E92C3;}
	.st2{font-family:'Montserrat-Bold';}
	.st3{font-size:30px;}
</style>
<path class="st0" d="M219.9,265.9L195,253.3l-4.8-27.5c-41.4,34.5-107.3-5.7-107.3-5.7l6.5-14.4L46.2,217l20.2,39.8l8.9-19.8
	C154.7,322,219.9,265.9,219.9,265.9z"/>
<path class="st1" d="M219.9,258.9L195,246.3l-4.8-27.5c-41.4,34.5-107.3-5.7-107.3-5.7l6.5-14.4L46.2,210l20.2,39.8l8.9-19.8
	C154.7,315,219.9,258.9,219.9,258.9z"/>
<text transform="matrix(1 0 0 1 212.9998 195.7515)"><tspan x="0" y="0" class="st1 st2 st3">Pick a topic </tspan><tspan x="0" y="36" class="st1 st2 st3">to get started.</tspan></text>
</svg>
