<?xml version="1.0" encoding="utf-8"?>
<!-- Generator: Adobe Illustrator 19.1.0, SVG Export Plug-In . SVG Version: 6.00 Build 0)  -->
<svg version="1.1" id="Layer_1" xmlns="http://www.w3.org/2000/svg" xmlns:xlink="http://www.w3.org/1999/xlink" x="0px" y="0px"
	 viewBox="0 0 640 600" style="enable-background:new 0 0 640 600;" xml:space="preserve">
<style type="text/css">
	.st0{fill:#A49588;}
	.st1{fill:#66CCCC;}
	.st2{fill:#E6E4CC;}
	.st3{fill:#B3CD13;}
	.st4{fill:none;stroke:#A49588;stroke-width:2;stroke-linecap:round;stroke-miterlimit:10;}
</style>
<ellipse class="st0" cx="320" cy="454.3" rx="173.9" ry="50.7"/>
<g>
	<g>
		<path class="st1" d="M322.6,295.7c0,0,33.6-24.6,5.1-50.4C327.6,245.3,309.9,265.6,322.6,295.7z"/>
		<path class="st2" d="M392.9,407c0,37.5-30.4,68-68,68c-37.5,0-68-30.4-68-68s39.9-32.4,68-82C351.8,374.6,392.9,369.4,392.9,407z"
			/>
		<path class="st3" d="M319.7,261.2c0,0,4.1,71.4,21.8,86.8l10.2,9.6c-2.2,5.9-9.6,16.1-23.1,16.3c-13.5,0.2-19.1-15.6-21.2-25.5
			C299.9,313.2,319.7,261.2,319.7,261.2z"/>
		<path class="st3" d="M318,291.4c0,0-31.9,6.5-35.7-17.2C282.2,274.2,306.7,265.6,318,291.4z"/>
		<path class="st3" d="M328.7,331.2c0,0,2.7-27.2,16.6-27.2C345.3,304,353.6,319.2,328.7,331.2z"/>
	</g>
	<path class="st4" d="M365.2,395.3c0,0,32.6,10,32.7-16.9"/>
	<path class="st4" d="M345.8,403.3c0,0-24.3,33.5-47.4,4.8"/>
	<path class="st4" d="M352.1,431.3l20.9-5.5c0,0,2.7,15.8-6,17.4C358.7,444.6,352.1,431.3,352.1,431.3z"/>
</g>
<g>
	<path class="st1" d="M167.4,168.8c1.1,0.9,1.6,2.2,1.6,3.8c0,1.6-0.5,2.9-1.6,3.9c-1.1,0.9-2.6,1.4-4.4,1.4h-4.6v7.4H157v-17.9h5.9
		C164.8,167.4,166.3,167.9,167.4,168.8z M166.4,175.6c0.8-0.7,1.2-1.7,1.2-3c0-1.3-0.4-2.2-1.2-2.9c-0.8-0.7-2-1-3.6-1h-4.4v8h4.4
		C164.3,176.6,165.5,176.3,166.4,175.6z"/>
	<path class="st1" d="M172.4,168.8c-0.2-0.2-0.3-0.5-0.3-0.8s0.1-0.6,0.3-0.8c0.2-0.2,0.5-0.3,0.8-0.3c0.3,0,0.6,0.1,0.8,0.3
		c0.2,0.2,0.3,0.5,0.3,0.8s-0.1,0.6-0.3,0.8c-0.2,0.2-0.5,0.3-0.8,0.3C172.9,169.1,172.6,169,172.4,168.8z M173.9,185.3h-1.4v-13.6
		h1.4V185.3z"/>
	<path class="st1" d="M187.7,172.4c1,0.6,1.6,1.5,2,2.7l-1.3,0.6c-0.3-1-0.8-1.8-1.5-2.3c-0.7-0.5-1.6-0.8-2.7-0.8
		c-1.6,0-2.8,0.5-3.7,1.6c-0.9,1-1.3,2.5-1.3,4.3c0,1.8,0.4,3.3,1.3,4.3c0.9,1,2.1,1.5,3.7,1.5c1.2,0,2.1-0.3,2.9-0.9
		c0.8-0.6,1.3-1.4,1.5-2.4l1.2,0.4c-0.4,1.2-1,2.2-2,2.9c-1,0.7-2.2,1.1-3.6,1.1c-2,0-3.6-0.6-4.7-1.9c-1.1-1.2-1.7-3-1.7-5.2
		s0.6-3.9,1.7-5.2c1.1-1.2,2.7-1.9,4.7-1.9C185.6,171.5,186.8,171.8,187.7,172.4z"/>
	<path class="st1" d="M198.1,178.1l-3.2,3.1v4.1h-1.4v-19.8h1.4v14l8.1-7.8h1.8l-5.6,5.4l5.8,8.1h-1.7L198.1,178.1z"/>
	<path class="st1" d="M227.8,184.2l-0.1,1.1c-0.3,0.2-0.8,0.3-1.3,0.3c-0.6,0-1.1-0.2-1.5-0.5c-0.4-0.3-0.6-0.9-0.7-1.8
		c-0.4,0.7-1.1,1.3-2,1.7s-1.9,0.6-2.9,0.6c-1.3,0-2.4-0.3-3.2-0.9c-0.8-0.6-1.2-1.4-1.2-2.6c0-2.1,1.7-3.5,5.2-4.1l4.2-0.7v-1.2
		c0-1.1-0.3-1.9-1-2.6c-0.6-0.6-1.6-0.9-2.7-0.9c-2.2,0-3.6,1-4.3,2.9l-1-0.8c0.4-1.1,1.1-1.9,2-2.5c0.9-0.6,2.1-0.9,3.4-0.9
		c1.6,0,2.8,0.4,3.7,1.2c0.9,0.8,1.3,1.9,1.3,3.4v7c0,1,0.4,1.4,1.2,1.4C227.2,184.4,227.6,184.4,227.8,184.2z M221.6,184
		c0.7-0.3,1.3-0.7,1.8-1.2s0.7-1.1,0.7-1.9v-2.5l-3.7,0.7c-1.5,0.3-2.5,0.7-3.2,1.1c-0.7,0.5-1,1.1-1,1.9c0,0.7,0.3,1.3,0.8,1.7
		c0.6,0.4,1.3,0.6,2.3,0.6C220.2,184.4,220.9,184.3,221.6,184z"/>
	<path class="st1" d="M245.4,184.5c-0.4,0.4-0.8,0.6-1.3,0.8c-0.5,0.2-1.1,0.3-1.7,0.3c-1.1,0-2-0.3-2.6-0.9
		c-0.6-0.6-0.9-1.5-0.9-2.8v-9H236v-1.2h2.7v-3.4l1.4-0.4v3.8h5.1v1.2h-5.1v8.8c0,0.9,0.2,1.5,0.6,1.9c0.4,0.4,1,0.7,1.8,0.7
		c0.9,0,1.7-0.3,2.4-1L245.4,184.5z"/>
	<path class="st1" d="M258.4,173.4c1.1,1.3,1.7,3,1.7,5.2c0,2.2-0.6,3.9-1.7,5.2c-1.1,1.3-2.7,1.9-4.7,1.9s-3.6-0.6-4.7-1.9
		c-1.1-1.3-1.7-3-1.7-5.2c0-2.2,0.6-3.9,1.7-5.2s2.7-1.9,4.7-1.9S257.3,172.1,258.4,173.4z M249.9,174.2c-0.9,1-1.4,2.5-1.4,4.3
		c0,1.8,0.5,3.3,1.4,4.3c0.9,1,2.2,1.6,3.7,1.6c1.6,0,2.8-0.5,3.7-1.6c0.9-1,1.4-2.5,1.4-4.3c0-1.8-0.5-3.3-1.4-4.3
		c-0.9-1-2.2-1.6-3.7-1.6C252.1,172.7,250.9,173.2,249.9,174.2z"/>
	<path class="st1" d="M275,173.4c1.1,1.2,1.7,3,1.7,5.2s-0.6,3.9-1.7,5.2c-1.1,1.2-2.6,1.9-4.5,1.9c-1.2,0-2.2-0.3-3.1-0.8
		c-0.9-0.6-1.5-1.3-1.9-2.3v8.6h-1.4v-19.3h1.2l0.1,3.1c0.4-1,1-1.9,1.9-2.5c0.9-0.6,1.9-0.9,3.2-0.9
		C272.4,171.5,273.9,172.1,275,173.4z M274,182.8c0.9-1,1.3-2.5,1.3-4.3c0-1.8-0.4-3.3-1.3-4.3c-0.9-1-2.1-1.6-3.7-1.6
		c-1.4,0-2.6,0.5-3.4,1.4c-0.9,1-1.3,2.3-1.4,3.9v1c0.1,1.7,0.5,3,1.4,3.9c0.9,1,2,1.4,3.4,1.4C271.9,184.4,273.1,183.9,274,182.8z"
		/>
	<path class="st1" d="M280.5,168.8c-0.2-0.2-0.3-0.5-0.3-0.8s0.1-0.6,0.3-0.8c0.2-0.2,0.5-0.3,0.8-0.3c0.3,0,0.6,0.1,0.8,0.3
		c0.2,0.2,0.3,0.5,0.3,0.8s-0.1,0.6-0.3,0.8c-0.2,0.2-0.5,0.3-0.8,0.3C281,169.1,280.7,169,280.5,168.8z M282,185.3h-1.4v-13.6h1.4
		V185.3z"/>
	<path class="st1" d="M295.9,172.4c1,0.6,1.6,1.5,2,2.7l-1.3,0.6c-0.3-1-0.8-1.8-1.5-2.3c-0.7-0.5-1.6-0.8-2.7-0.8
		c-1.6,0-2.8,0.5-3.7,1.6c-0.9,1-1.3,2.5-1.3,4.3c0,1.8,0.4,3.3,1.3,4.3c0.9,1,2.1,1.5,3.7,1.5c1.2,0,2.1-0.3,2.9-0.9
		c0.8-0.6,1.3-1.4,1.5-2.4l1.2,0.4c-0.4,1.2-1,2.2-2,2.9c-1,0.7-2.2,1.1-3.6,1.1c-2,0-3.6-0.6-4.7-1.9c-1.1-1.2-1.7-3-1.7-5.2
		s0.6-3.9,1.7-5.2c1.1-1.2,2.7-1.9,4.7-1.9C293.8,171.5,294.9,171.8,295.9,172.4z"/>
	<path class="st1" d="M317.1,184.5c-0.4,0.4-0.8,0.6-1.3,0.8c-0.5,0.2-1.1,0.3-1.7,0.3c-1.1,0-2-0.3-2.6-0.9
		c-0.6-0.6-0.9-1.5-0.9-2.8v-9h-2.7v-1.2h2.7v-3.4l1.4-0.4v3.8h5.1v1.2h-5.1v8.8c0,0.9,0.2,1.5,0.6,1.9c0.4,0.4,1,0.7,1.8,0.7
		c0.9,0,1.7-0.3,2.4-1L317.1,184.5z"/>
	<path class="st1" d="M330.2,173.4c1.1,1.3,1.7,3,1.7,5.2c0,2.2-0.6,3.9-1.7,5.2c-1.2,1.3-2.7,1.9-4.7,1.9s-3.6-0.6-4.7-1.9
		c-1.1-1.3-1.7-3-1.7-5.2c0-2.2,0.6-3.9,1.7-5.2c1.1-1.3,2.7-1.9,4.7-1.9S329,172.1,330.2,173.4z M321.7,174.2
		c-0.9,1-1.4,2.5-1.4,4.3c0,1.8,0.5,3.3,1.4,4.3c0.9,1,2.2,1.6,3.7,1.6c1.6,0,2.8-0.5,3.7-1.6c0.9-1,1.4-2.5,1.4-4.3
		c0-1.8-0.5-3.3-1.4-4.3c-0.9-1-2.2-1.6-3.7-1.6C323.9,172.7,322.6,173.2,321.7,174.2z"/>
	<path class="st1" d="M354.5,184.8c0.8,0.6,1.2,1.3,1.2,2.3c0,0.8-0.3,1.5-0.8,2.2c-0.6,0.6-1.3,1.1-2.3,1.5c-1,0.3-2.1,0.5-3.3,0.5
		c-2,0-3.6-0.3-4.7-1s-1.6-1.5-1.6-2.6c0-0.7,0.2-1.3,0.7-1.8s1-0.9,1.8-1.1c-0.5-0.2-1-0.6-1.3-1s-0.5-0.9-0.5-1.4
		c0-0.7,0.2-1.2,0.6-1.7c0.4-0.5,1-0.8,1.7-1c-0.7-0.4-1.3-0.9-1.7-1.5c-0.4-0.6-0.6-1.4-0.6-2.2c0-1.3,0.5-2.4,1.5-3.2
		c1-0.8,2.3-1.2,4-1.2c1.2,0,2.2,0.2,3.1,0.6c0.1-0.9,0.5-1.6,1.1-2.1c0.6-0.5,1.4-0.8,2.3-0.8l0.3,1.2c-0.9,0-1.5,0.2-2,0.6
		c-0.5,0.4-0.8,0.9-0.8,1.6c1,0.8,1.5,1.9,1.5,3.3c0,1.3-0.5,2.4-1.5,3.2c-1,0.8-2.3,1.2-4,1.2c-0.6,0-1.2-0.1-1.8-0.2
		c-0.8,0.1-1.4,0.3-1.8,0.7s-0.6,0.8-0.6,1.3c0,0.6,0.2,1,0.7,1.4c0.5,0.3,1.2,0.5,2.2,0.5h3.5C352.7,183.9,353.7,184.2,354.5,184.8
		z M353.1,189.2c0.9-0.5,1.4-1.2,1.4-2c0-0.7-0.3-1.2-0.9-1.5s-1.4-0.6-2.6-0.6h-3.5c-1,0-1.9,0.2-2.5,0.6c-0.6,0.4-0.9,0.9-0.9,1.6
		c0,0.8,0.5,1.5,1.4,2c0.9,0.5,2.2,0.7,3.9,0.7C350.9,190,352.1,189.8,353.1,189.2z M346.1,178.3c0.7,0.6,1.8,0.9,3,0.9
		c1.3,0,2.3-0.3,3-0.9s1.1-1.4,1.1-2.4c0-1-0.4-1.8-1.1-2.4c-0.7-0.6-1.7-0.9-3-0.9s-2.3,0.3-3,0.9c-0.8,0.6-1.1,1.4-1.1,2.4
		C345,176.9,345.4,177.7,346.1,178.3z"/>
	<path class="st1" d="M369.6,179.1h-10.8c0.1,1.7,0.6,3,1.5,3.9c0.9,0.9,2.1,1.4,3.6,1.4c1.1,0,2-0.2,2.8-0.7c0.8-0.4,1.3-1,1.7-1.8
		l1.1,0.6c-0.5,1-1.2,1.8-2.2,2.3c-0.9,0.5-2.1,0.8-3.4,0.8c-2,0-3.6-0.6-4.7-1.9c-1.1-1.2-1.7-3-1.7-5.2s0.5-3.9,1.6-5.2
		s2.6-1.9,4.6-1.9c1.8,0,3.3,0.6,4.3,1.8c1,1.2,1.6,2.9,1.6,4.9C369.6,178.5,369.6,178.8,369.6,179.1z M360.2,174.1
		c-0.9,0.9-1.3,2.2-1.4,3.8h9.6c-0.1-1.6-0.5-2.9-1.3-3.8c-0.8-0.9-1.9-1.4-3.3-1.4C362.3,172.7,361.1,173.1,360.2,174.1z"/>
	<path class="st1" d="M380.7,184.5c-0.4,0.4-0.8,0.6-1.3,0.8c-0.5,0.2-1.1,0.3-1.7,0.3c-1.1,0-2-0.3-2.6-0.9
		c-0.6-0.6-0.9-1.5-0.9-2.8v-9h-2.7v-1.2h2.7v-3.4l1.4-0.4v3.8h5.1v1.2h-5.1v8.8c0,0.9,0.2,1.5,0.6,1.9c0.4,0.4,1,0.7,1.8,0.7
		c0.9,0,1.7-0.3,2.4-1L380.7,184.5z"/>
	<path class="st1" d="M392.7,184.8c-1-0.5-1.7-1.3-2.1-2.4l1.1-0.7c0.3,0.9,0.8,1.6,1.7,2c0.8,0.5,1.9,0.7,3.1,0.7
		c1.2,0,2.2-0.2,2.9-0.7c0.7-0.5,1-1.1,1-1.9c0-0.7-0.3-1.2-0.9-1.6c-0.6-0.4-1.6-0.7-3.1-1c-1.9-0.3-3.2-0.8-4-1.4
		c-0.8-0.6-1.2-1.4-1.2-2.5c0-0.7,0.2-1.4,0.7-2s1-1.1,1.8-1.4c0.8-0.3,1.7-0.5,2.7-0.5c1.4,0,2.6,0.3,3.4,0.8
		c0.9,0.5,1.5,1.4,1.8,2.5l-1.2,0.7c-0.5-1.9-1.9-2.8-4-2.8c-0.7,0-1.4,0.1-2,0.4c-0.6,0.2-1,0.5-1.4,0.9s-0.5,0.8-0.5,1.3
		c0,0.7,0.3,1.3,0.9,1.7c0.6,0.4,1.7,0.8,3.3,1c1.8,0.3,3.1,0.8,3.9,1.3c0.8,0.6,1.1,1.4,1.1,2.4c0,1.2-0.5,2.1-1.5,2.8s-2.3,1-4,1
		C394.9,185.6,393.7,185.3,392.7,184.8z"/>
	<path class="st1" d="M413,184.5c-0.4,0.4-0.8,0.6-1.3,0.8c-0.5,0.2-1.1,0.3-1.7,0.3c-1.1,0-2-0.3-2.6-0.9c-0.6-0.6-0.9-1.5-0.9-2.8
		v-9h-2.7v-1.2h2.7v-3.4l1.4-0.4v3.8h5.1v1.2h-5.1v8.8c0,0.9,0.2,1.5,0.6,1.9c0.4,0.4,1,0.7,1.8,0.7c0.9,0,1.7-0.3,2.4-1L413,184.5z
		"/>
	<path class="st1" d="M427.7,184.2l-0.1,1.1c-0.3,0.2-0.8,0.3-1.3,0.3c-0.6,0-1.1-0.2-1.5-0.5c-0.4-0.3-0.6-0.9-0.7-1.8
		c-0.4,0.7-1.1,1.3-2,1.7s-1.9,0.6-2.9,0.6c-1.3,0-2.4-0.3-3.2-0.9s-1.2-1.4-1.2-2.6c0-2.1,1.7-3.5,5.2-4.1l4.2-0.7v-1.2
		c0-1.1-0.3-1.9-1-2.6c-0.6-0.6-1.6-0.9-2.7-0.9c-2.2,0-3.6,1-4.3,2.9l-1-0.8c0.4-1.1,1.1-1.9,2-2.5c0.9-0.6,2.1-0.9,3.4-0.9
		c1.6,0,2.8,0.4,3.7,1.2s1.3,1.9,1.3,3.4v7c0,1,0.4,1.4,1.2,1.4C427.1,184.4,427.5,184.4,427.7,184.2z M421.5,184
		c0.7-0.3,1.3-0.7,1.8-1.2s0.7-1.1,0.7-1.9v-2.5l-3.7,0.7c-1.5,0.3-2.5,0.7-3.2,1.1c-0.7,0.5-1,1.1-1,1.9c0,0.7,0.3,1.3,0.8,1.7
		c0.6,0.4,1.3,0.6,2.3,0.6C420.1,184.4,420.8,184.3,421.5,184z"/>
	<path class="st1" d="M437.9,171.9l-0.4,1.3c-0.4-0.3-1-0.5-1.7-0.5c-0.7,0-1.3,0.2-1.9,0.6s-1.1,1-1.5,1.8
		c-0.4,0.8-0.6,1.6-0.6,2.6v7.6h-1.4v-13.6h1.1l0.2,2.8c0.4-1,0.9-1.7,1.7-2.2c0.8-0.5,1.7-0.8,2.7-0.8
		C436.9,171.5,437.5,171.6,437.9,171.9z"/>
	<path class="st1" d="M447.8,184.5c-0.4,0.4-0.8,0.6-1.3,0.8c-0.5,0.2-1.1,0.3-1.7,0.3c-1.1,0-2-0.3-2.6-0.9
		c-0.6-0.6-0.9-1.5-0.9-2.8v-9h-2.7v-1.2h2.7v-3.4l1.4-0.4v3.8h5.1v1.2h-5.1v8.8c0,0.9,0.2,1.5,0.6,1.9c0.4,0.4,1,0.7,1.8,0.7
		c0.9,0,1.7-0.3,2.4-1L447.8,184.5z"/>
	<path class="st1" d="M461.8,179.1H451c0.1,1.7,0.6,3,1.5,3.9c0.9,0.9,2.1,1.4,3.6,1.4c1.1,0,2-0.2,2.8-0.7c0.8-0.4,1.3-1,1.7-1.8
		l1.1,0.6c-0.5,1-1.2,1.8-2.2,2.3c-0.9,0.5-2.1,0.8-3.4,0.8c-2,0-3.6-0.6-4.7-1.9c-1.1-1.2-1.7-3-1.7-5.2s0.5-3.9,1.6-5.2
		s2.6-1.9,4.6-1.9c1.8,0,3.3,0.6,4.3,1.8c1,1.2,1.6,2.9,1.6,4.9C461.9,178.5,461.8,178.8,461.8,179.1z M452.5,174.1
		c-0.9,0.9-1.3,2.2-1.4,3.8h9.6c-0.1-1.6-0.5-2.9-1.3-3.8c-0.8-0.9-1.9-1.4-3.3-1.4C454.5,172.7,453.3,173.1,452.5,174.1z"/>
	<path class="st1" d="M477.4,165.5v19.8h-1.2l-0.1-3c-0.4,1-1,1.8-1.9,2.4c-0.9,0.6-1.9,0.9-3.1,0.9c-1.9,0-3.4-0.6-4.5-1.9
		c-1.1-1.2-1.7-3-1.7-5.2s0.6-3.9,1.7-5.2s2.6-1.9,4.5-1.9c1.2,0,2.2,0.3,3.1,0.8c0.9,0.6,1.5,1.3,1.9,2.3v-9.1H477.4z M474.7,183
		c0.9-1,1.3-2.2,1.4-3.9V178c-0.1-1.6-0.6-2.9-1.4-3.9c-0.9-1-2-1.4-3.4-1.4c-1.6,0-2.8,0.5-3.7,1.6c-0.9,1-1.3,2.5-1.3,4.3
		c0,1.8,0.4,3.3,1.3,4.3c0.9,1,2.1,1.6,3.7,1.6C472.7,184.4,473.8,183.9,474.7,183z"/>
	<path class="st1" d="M483.7,183.4c0.2,0.2,0.3,0.5,0.3,0.9c0,0.4-0.1,0.7-0.3,0.9s-0.5,0.3-0.9,0.3c-0.4,0-0.7-0.1-0.9-0.3
		s-0.3-0.5-0.3-0.9c0-0.4,0.1-0.7,0.3-0.9c0.2-0.2,0.5-0.3,0.9-0.3C483.2,183.1,483.5,183.2,483.7,183.4z"/>
</g>
</svg>
